<svg width="17" height="17" viewBox="0 0 17 17" fill="none" xmlns="http://www.w3.org/2000/svg">
<path d="M14.2467 6.37511C13.5467 3.29511 10.86 1.90845 8.5 1.90845C8.5 1.90845 8.5 1.90845 8.49334 1.90845C6.14 1.90845 3.44667 3.28845 2.74667 6.36845C1.96667 9.80845 4.07334 12.7218 5.98 14.5551C6.68667 15.2351 7.59334 15.5751 8.5 15.5751C9.40667 15.5751 10.3133 15.2351 11.0133 14.5551C12.92 12.7218 15.0267 9.81511 14.2467 6.37511ZM8.5 9.71511C7.34 9.71511 6.4 8.77511 6.4 7.61511C6.4 6.45511 7.34 5.51511 8.5 5.51511C9.66 5.51511 10.6 6.45511 10.6 7.61511C10.6 8.77511 9.66 9.71511 8.5 9.71511Z" fill="#121416"/>
</svg>
