<svg width="20" height="20" viewBox="0 0 20 20" fill="none" xmlns="http://www.w3.org/2000/svg">
<path d="M9.00391 0.0273438C6.38281 0.308594 4.00781 1.5625 2.33594 3.55469C1.16016 4.95312 0.429688 6.53906 0.105469 8.39844C0.03125 8.82422 0.0234375 9.03125 0.0234375 10C0.0234375 10.9688 0.03125 11.1758 0.105469 11.6016C0.472656 13.7109 1.35547 15.457 2.8125 16.9688C4.30859 18.5234 6.19531 19.5078 8.39844 19.8945C8.82422 19.9688 9.03125 19.9766 10 19.9766C11.2227 19.9766 11.5898 19.9375 12.5508 19.6914C15.9961 18.8008 18.8008 15.9961 19.6914 12.5508C19.9375 11.5898 19.9766 11.2227 19.9766 10C19.9766 8.77734 19.9375 8.41016 19.6914 7.44922C18.8008 4.00781 15.9961 1.19922 12.5508 0.308594C11.6641 0.0820312 11.2461 0.03125 10.1562 0.0195312C9.60938 0.0117188 9.08984 0.015625 9.00391 0.0273438ZM8.66406 5.09766C8.84766 5.17578 13.043 9.35156 13.1953 9.60938C13.3398 9.85156 13.3398 10.1484 13.1953 10.3906C13.043 10.6484 8.84766 14.8242 8.66406 14.9023C8.37891 15.0195 7.99609 14.9531 7.77734 14.7539C7.55859 14.5508 7.47656 14.1328 7.60156 13.8359C7.64062 13.7383 8.24609 13.1055 9.50391 11.8438L11.3477 10L9.50391 8.15234C8.24609 6.89453 7.64062 6.26172 7.60156 6.16406C7.48047 5.87891 7.54688 5.49609 7.74609 5.27734C7.94922 5.05859 8.36719 4.97656 8.66406 5.09766Z" fill="#252020"/>
</svg>
