<svg width="25" height="25" viewBox="0 0 25 25" fill="none" xmlns="http://www.w3.org/2000/svg">
<g clip-path="url(#clip0_780_4124)">
<path d="M19.3857 4.22852H18.8777L16.6937 1.39652C16.4123 1.03432 16.0521 0.740932 15.6404 0.53857C15.2288 0.336207 14.7764 0.230179 14.3177 0.228516L10.4537 0.228516C9.99504 0.230179 9.54273 0.336207 9.13107 0.53857C8.71942 0.740932 8.35921 1.03432 8.07774 1.39652L5.89374 4.22852H5.38574C4.06015 4.2301 2.7893 4.7574 1.85196 5.69474C0.914624 6.63207 0.38733 7.90292 0.385742 9.22852L0.385742 19.2285C0.38733 20.5541 0.914624 21.825 1.85196 22.7623C2.7893 23.6996 4.06015 24.2269 5.38574 24.2285H19.3857C20.7113 24.2269 21.9822 23.6996 22.9195 22.7623C23.8569 21.825 24.3842 20.5541 24.3857 19.2285V9.22852C24.3842 7.90292 23.8569 6.63207 22.9195 5.69474C21.9822 4.7574 20.7113 4.2301 19.3857 4.22852ZM9.66174 2.61852C9.75541 2.49757 9.87543 2.39958 10.0127 2.332C10.1499 2.26442 10.3008 2.22903 10.4537 2.22852H14.3177C14.4707 2.22917 14.6215 2.26463 14.7587 2.3322C14.8959 2.39977 15.016 2.49768 15.1097 2.61852L16.3517 4.22852H8.41974L9.66174 2.61852ZM22.3857 19.2285C22.3857 20.0242 22.0697 20.7872 21.5071 21.3498C20.9445 21.9124 20.1814 22.2285 19.3857 22.2285H5.38574C4.59009 22.2285 3.82703 21.9124 3.26442 21.3498C2.70181 20.7872 2.38574 20.0242 2.38574 19.2285V9.22852C2.38574 8.43287 2.70181 7.6698 3.26442 7.1072C3.82703 6.54459 4.59009 6.22852 5.38574 6.22852H19.3857C20.1814 6.22852 20.9445 6.54459 21.5071 7.1072C22.0697 7.6698 22.3857 8.43287 22.3857 9.22852V19.2285Z" fill="#121416"/>
<path d="M12.3857 8.22852C11.1991 8.22852 10.039 8.58041 9.05232 9.2397C8.06563 9.89899 7.29659 10.8361 6.84247 11.9324C6.38834 13.0288 6.26952 14.2352 6.50103 15.3991C6.73254 16.5629 7.30399 17.632 8.1431 18.4712C8.98222 19.3103 10.0513 19.8817 11.2152 20.1132C12.3791 20.3447 13.5855 20.2259 14.6818 19.7718C15.7782 19.3177 16.7153 18.5486 17.3746 17.5619C18.0339 16.5752 18.3857 15.4152 18.3857 14.2285C18.3842 12.6377 17.7515 11.1125 16.6266 9.98763C15.5018 8.86275 13.9766 8.2301 12.3857 8.22852ZM12.3857 18.2285C11.5946 18.2285 10.8213 17.9939 10.1635 17.5544C9.50567 17.1149 8.99298 16.4902 8.69023 15.7592C8.38748 15.0283 8.30826 14.2241 8.4626 13.4482C8.61694 12.6722 8.99791 11.9595 9.55732 11.4001C10.1167 10.8407 10.8295 10.4597 11.6054 10.3054C12.3813 10.151 13.1856 10.2302 13.9165 10.533C14.6474 10.8357 15.2721 11.3484 15.7116 12.0062C16.1511 12.664 16.3857 13.4374 16.3857 14.2285C16.3857 15.2894 15.9643 16.3068 15.2142 17.0569C14.464 17.8071 13.4466 18.2285 12.3857 18.2285Z" fill="#121416"/>
</g>
<defs>
<clipPath id="clip0_780_4124">
<rect width="24" height="24" fill="white" transform="translate(0.385742 0.228516)"/>
</clipPath>
</defs>
</svg>

