<svg width="26" height="26" viewBox="0 0 26 26" fill="none" xmlns="http://www.w3.org/2000/svg">
<path d="M11.7549 0.386719C8.47852 0.738281 5.50977 2.30566 3.41992 4.7959C1.9502 6.54395 1.03711 8.52637 0.631836 10.8506C0.539062 11.3828 0.529297 11.6416 0.529297 12.8525C0.529297 14.0635 0.539062 14.3223 0.631836 14.8545C1.09082 17.4912 2.19434 19.6738 4.01562 21.5635C5.88574 23.5068 8.24414 24.7373 10.998 25.2207C11.5303 25.3135 11.7891 25.3232 13 25.3232C14.5283 25.3232 14.9873 25.2744 16.1885 24.9668C20.4951 23.8535 24.001 20.3477 25.1143 16.041C25.4219 14.8398 25.4707 14.3809 25.4707 12.8525C25.4707 11.3242 25.4219 10.8652 25.1143 9.66406C24.001 5.3623 20.4951 1.85156 16.1885 0.738281C15.0801 0.455078 14.5576 0.391602 13.1953 0.376953C12.5117 0.367188 11.8623 0.37207 11.7549 0.386719ZM19.5674 7.5498C20.0215 7.75977 20.2754 8.12598 20.3145 8.61426C20.3584 9.17578 20.5293 8.98047 15.9883 13.4873C13.0977 16.3535 11.8086 17.5986 11.6475 17.6865C11.3105 17.8623 10.8613 17.8574 10.5586 17.6768C10.29 17.5156 6.0957 13.6973 5.91504 13.4482C5.54395 12.9355 5.62695 12.2227 6.10059 11.832C6.4668 11.5244 6.96973 11.4707 7.38965 11.6855C7.49707 11.7393 8.36621 12.4961 9.32324 13.375L11.0566 14.9619L14.7529 11.2705C16.7842 9.23926 18.459 7.5791 18.4688 7.5791C18.4834 7.5791 18.5811 7.54492 18.6885 7.50586C18.9766 7.40332 19.2891 7.41797 19.5674 7.5498Z" fill="#121416"/>
</svg>
