<svg width="25" height="24" viewBox="0 0 25 24" fill="none" xmlns="http://www.w3.org/2000/svg">
<g clip-path="url(#clip0_237_3075)">
<path d="M10.8241 0.0703201C6.83506 0.614071 3.42725 3.01407 1.63662 6.53907C0.722559 8.33907 0.333496 9.96563 0.333496 12C0.333496 14.0438 0.731934 15.6938 1.65537 17.4938C3.50225 21.0938 7.06943 23.5359 11.1054 23.9578C12.1366 24.0656 13.8569 23.9766 14.8413 23.7609C16.6413 23.3719 18.4694 22.4906 19.9132 21.3234C20.3819 20.9438 21.2772 20.0484 21.6569 19.5797C22.8522 18.0984 23.7522 16.2047 24.1179 14.3906C24.3429 13.2703 24.4038 11.6063 24.2632 10.5141C23.5929 5.41407 19.8569 1.34063 14.8413 0.239071C13.7585 0.00469589 11.9022 -0.0749912 10.8241 0.0703201ZM13.6882 0.82032C16.2007 1.13438 18.4741 2.25001 20.2788 4.0547C21.9944 5.77032 23.0726 7.87969 23.4757 10.3359C23.6069 11.1234 23.5929 12.9797 23.4522 13.7813C23.0351 16.1906 21.971 18.2578 20.2788 19.9453C18.4601 21.7688 16.1491 22.8891 13.6179 23.1844C12.7554 23.2875 11.3304 23.2547 10.5288 23.1141C8.14287 22.7016 6.07568 21.6375 4.38818 19.9453C2.621 18.1828 1.56631 16.0688 1.16787 13.5C1.07412 12.8766 1.08818 10.9781 1.19131 10.3359C1.6085 7.84688 2.65381 5.78438 4.38818 4.0547C6.17881 2.26407 8.4335 1.14845 10.9507 0.82032C11.6116 0.735947 12.9897 0.735947 13.6882 0.82032Z" fill="#A8A8A8"/>
<path d="M8.16164 7.15314C7.34132 7.50471 7.2382 8.67189 7.97882 9.16408C8.56007 9.54846 9.31945 9.33752 9.63351 8.70939C9.84914 8.27814 9.75539 7.67814 9.42257 7.37346C9.12257 7.10158 8.52726 6.99377 8.16164 7.15314ZM8.8507 7.97814C9.14132 8.25002 8.80382 8.69533 8.44757 8.51252C8.21789 8.39064 8.18507 8.12814 8.37726 7.97346C8.53664 7.84689 8.71476 7.84689 8.8507 7.97814Z" fill="#A8A8A8"/>
<path d="M15.5442 7.19063C15.263 7.32188 15.1364 7.45313 15.0098 7.73438C14.8926 7.99219 14.8833 8.41407 14.9864 8.6625C15.2301 9.25313 15.9755 9.525 16.5661 9.23907C17.4333 8.81719 17.377 7.51875 16.477 7.14375C16.2333 7.04063 15.8161 7.05938 15.5442 7.19063ZM16.2895 7.97344C16.4958 8.13282 16.4395 8.42344 16.1817 8.52657C15.8489 8.66719 15.563 8.25 15.8114 7.98282C15.938 7.84688 16.1255 7.84219 16.2895 7.97344Z" fill="#A8A8A8"/>
<path d="M21.4074 11.6677C21.532 12.9587 21.3797 14.2614 20.9607 15.4889C20.5417 16.7163 19.8656 17.8402 18.9775 18.7855C18.0894 19.7308 17.0099 20.4757 15.811 20.9705C14.612 21.4653 13.3213 21.6985 12.0251 21.6547C10.7288 21.6108 9.4568 21.2909 8.29406 20.7162C7.13132 20.1415 6.10459 19.3253 5.28246 18.3222C4.46033 17.319 3.86172 16.1519 3.52662 14.899C3.19152 13.646 3.12764 12.3359 3.33925 11.0563L4.16692 11.1932C3.97478 12.3551 4.03279 13.5446 4.33705 14.6822C4.64131 15.8199 5.18484 16.8795 5.93131 17.7904C6.67779 18.7012 7.61003 19.4423 8.66577 19.9641C9.72151 20.4859 10.8764 20.7764 12.0534 20.8163C13.2304 20.8561 14.4023 20.6443 15.4909 20.195C16.5795 19.7458 17.5597 19.0694 18.3661 18.2111C19.1724 17.3528 19.7863 16.3323 20.1668 15.2178C20.5473 14.1033 20.6855 12.9205 20.5724 11.7483L21.4074 11.6677Z" fill="#A8A8A8"/>
</g>
<defs>
<clipPath id="clip0_237_3075">
<rect width="24" height="24" fill="white" transform="translate(0.333496)"/>
</clipPath>
</defs>
</svg>
