<svg width="24" height="25" viewBox="0 0 24 25" fill="none" xmlns="http://www.w3.org/2000/svg">
<path d="M3.25 5.43311C3.25 3.91432 4.48122 2.68311 6 2.68311C7.51878 2.68311 8.75 3.91432 8.75 5.43311C8.75 6.95189 7.51878 8.18311 6 8.18311C4.48122 8.18311 3.25 6.95189 3.25 5.43311Z" fill="#2F4858"/>
<path d="M11.25 5.43311C11.25 5.01889 11.5858 4.68311 12 4.68311L20 4.68311C20.4142 4.68311 20.75 5.01889 20.75 5.43311C20.75 5.84732 20.4142 6.18311 20 6.18311L12 6.18311C11.5858 6.18311 11.25 5.84732 11.25 5.43311Z" fill="#2F4858"/>
<path d="M15.25 12.4331C15.25 10.9143 16.4812 9.68311 18 9.68311C19.5188 9.68311 20.75 10.9143 20.75 12.4331C20.75 13.9519 19.5188 15.1831 18 15.1831C16.4812 15.1831 15.25 13.9519 15.25 12.4331Z" fill="#2F4858"/>
<path d="M3.25 12.4331C3.25 12.0189 3.58579 11.6831 4 11.6831L12 11.6831C12.4142 11.6831 12.75 12.0189 12.75 12.4331C12.75 12.8473 12.4142 13.1831 12 13.1831L4 13.1831C3.58579 13.1831 3.25 12.8473 3.25 12.4331Z" fill="#2F4858"/>
<path d="M3.25 19.4331C3.25 17.9143 4.48122 16.6831 6 16.6831C7.51878 16.6831 8.75 17.9143 8.75 19.4331C8.75 20.9519 7.51878 22.1831 6 22.1831C4.48122 22.1831 3.25 20.9519 3.25 19.4331Z" fill="#2F4858"/>
<path d="M11.25 19.4331C11.25 19.0189 11.5858 18.6831 12 18.6831H20C20.4142 18.6831 20.75 19.0189 20.75 19.4331C20.75 19.8473 20.4142 20.1831 20 20.1831H12C11.5858 20.1831 11.25 19.8473 11.25 19.4331Z" fill="#2F4858"/>
<circle cx="17.9785" cy="12.4331" r="2.77148" fill="#121416"/>
<circle cx="6.02148" cy="5.45459" r="2.77148" fill="#121416"/>
<circle cx="6.02148" cy="19.4116" r="2.77148" fill="#121416"/>
</svg>
