<svg width="25" height="24" viewBox="0 0 25 24" fill="none" xmlns="http://www.w3.org/2000/svg">
<g clip-path="url(#clip0_237_3082)">
<path d="M15.2631 2.02028C14.4896 2.12341 13.6459 2.43747 12.9803 2.86872C12.5912 3.12185 12.0475 3.64684 8.00684 7.68278C3.47871 12.2062 3.47402 12.2109 3.47402 12.4031C3.47402 12.7031 3.72246 12.9 3.99902 12.8203C4.05996 12.8015 6.14121 10.7578 8.63027 8.27341C13.4818 3.4406 13.3834 3.52966 14.2037 3.18278C14.7943 2.93435 15.2818 2.8406 15.9896 2.84528C16.5146 2.84528 16.7021 2.86872 17.0865 2.97185C18.7506 3.40778 19.9881 4.64997 20.4287 6.32341C20.5271 6.68903 20.5459 6.88591 20.5506 7.38278C20.5506 8.0906 20.4662 8.54528 20.2318 9.13122C19.8709 10.0172 20.0631 9.81091 14.5646 15.3187C10.8287 19.064 9.4084 20.4562 9.15996 20.625C7.51934 21.7265 5.2834 21.1031 4.43027 19.2984C4.20527 18.8203 4.11621 18.4265 4.11621 17.9062C4.11621 17.3531 4.20527 16.9875 4.48652 16.4062L4.70215 15.9609L8.97715 11.6765C11.6303 9.01872 13.3506 7.32653 13.5146 7.21872C14.1006 6.83434 14.8271 6.78747 15.4459 7.09684C16.449 7.58903 16.8568 8.70934 16.4068 9.71716C16.2568 10.0453 16.1537 10.1578 12.6756 13.6406C8.87402 17.4562 9.00527 17.3109 9.15527 17.5922C9.23965 17.7515 9.34277 17.8078 9.54434 17.8125C9.73184 17.8125 9.75059 17.7937 13.3225 14.2172L16.9178 10.6172L17.1287 10.1718C17.4568 9.48278 17.5271 8.87341 17.349 8.18435C17.2131 7.65466 17.0068 7.29372 16.5943 6.87653C16.3037 6.58591 16.1584 6.4781 15.8443 6.33278C14.9068 5.89216 13.8146 5.97185 12.9896 6.53434C12.7928 6.67028 11.1709 8.26403 8.40996 11.025C3.86777 15.5765 3.86777 15.5765 3.56777 16.3265C3.3334 16.9125 3.27246 17.2547 3.27246 17.9297C3.27715 18.6609 3.3709 19.0734 3.68027 19.7109C4.7959 22.0218 7.82402 22.7531 9.84902 21.1968C10.3084 20.8406 20.1568 10.9547 20.41 10.589C21.699 8.75153 21.7459 6.29997 20.5318 4.45309C19.7162 3.21091 18.4553 2.35778 17.0256 2.08122C16.5709 1.99216 15.685 1.95935 15.2631 2.02028Z" fill="#A8A8A8"/>
</g>
<defs>
<clipPath id="clip0_237_3082">
<rect width="24" height="24" fill="white" transform="translate(0.333496)"/>
</clipPath>
</defs>
</svg>
