<svg width="30" height="31" viewBox="0 0 30 31" fill="none" xmlns="http://www.w3.org/2000/svg">
<rect y="0.374268" width="30" height="30" rx="15" fill="white"/>
<path fill-rule="evenodd" clip-rule="evenodd" d="M26.04 15.6356C26.04 14.8201 25.9668 14.0361 25.8309 13.2833H15V17.7317H21.1891C20.9225 19.1692 20.1123 20.3872 18.8943 21.2026V24.0881H22.6109C24.7855 22.0861 26.04 19.1379 26.04 15.6356Z" fill="#4285F4"/>
<path fill-rule="evenodd" clip-rule="evenodd" d="M15 26.8741C18.105 26.8741 20.7081 25.8443 22.6109 24.0879L18.8943 21.2025C17.8645 21.8925 16.5472 22.3002 15 22.3002C12.0047 22.3002 9.46951 20.2773 8.56519 17.5591H4.72314V20.5386C6.61542 24.297 10.5045 26.8741 15 26.8741Z" fill="#34A853"/>
<path fill-rule="evenodd" clip-rule="evenodd" d="M8.56523 17.5594C8.33523 16.8694 8.20455 16.1323 8.20455 15.3744C8.20455 14.6164 8.33523 13.8794 8.56523 13.1894V10.2098H4.72318C3.94432 11.7623 3.5 13.5187 3.5 15.3744C3.5 17.2301 3.94432 18.9864 4.72318 20.5389L8.56523 17.5594Z" fill="#FBBC05"/>
<path fill-rule="evenodd" clip-rule="evenodd" d="M15 8.44813C16.6884 8.44813 18.2043 9.02836 19.3961 10.1679L22.6945 6.86949C20.7029 5.01381 18.0997 3.87427 15 3.87427C10.5045 3.87427 6.61542 6.45131 4.72314 10.2097L8.56519 13.1893C9.46951 10.4711 12.0047 8.44813 15 8.44813Z" fill="#EA4335"/>
</svg>
