<svg width="40" height="40" viewBox="0 0 40 40" fill="none" xmlns="http://www.w3.org/2000/svg">
<rect x="0.5" y="0.5" width="39" height="39" rx="7.5" stroke="#121416"/>
<g clip-path="url(#clip0_350_3114)">
<path d="M18.7694 10.0586C17.0077 10.2969 15.4881 10.918 14.0623 11.9844C13.578 12.3477 12.6873 13.2109 12.3358 13.6523C11.1873 15.1133 10.535 16.6367 10.2459 18.5156C10.1639 19.0625 10.1561 20.3672 10.2303 20.9766C10.4334 22.6328 11.0936 24.3086 12.0467 25.5977C12.1678 25.7617 12.2655 25.9141 12.2655 25.9375C12.2655 25.9609 11.9412 26.7422 11.5428 27.6719C11.1444 28.5977 10.8202 29.4102 10.8202 29.4688C10.8202 29.6328 10.9373 29.8438 11.0702 29.9258C11.1444 29.9688 11.2655 30 11.3748 30C11.4725 30 12.7147 29.7969 14.1287 29.5469L16.6991 29.0938L17.1678 29.2344C18.2655 29.5586 19.0936 29.668 20.2537 29.6367C21.1053 29.6133 21.5975 29.5508 22.3358 29.3711C25.8709 28.5078 28.6795 25.707 29.5467 22.1758C30.6639 17.625 28.4803 12.9727 24.2772 10.9531C23.3983 10.5312 22.5037 10.25 21.5623 10.0977C21.0077 10.0078 19.3162 9.98438 18.7694 10.0586ZM19.8045 17.9414C19.9452 18.0117 20.078 18.2305 20.078 18.3945C20.078 18.4727 20.0428 18.5938 19.9998 18.6641C19.8553 18.9023 19.8123 18.9062 18.1209 18.9062C16.4256 18.9062 16.4061 18.9023 16.2498 18.6523C16.1053 18.418 16.1795 18.1133 16.4178 17.9688C16.535 17.8945 16.6248 17.8906 18.1248 17.8906C19.3123 17.8906 19.7303 17.9023 19.8045 17.9414ZM23.5467 20.6211C23.8475 20.7734 23.9217 21.1406 23.7069 21.3867C23.6366 21.4648 23.5233 21.5391 23.4373 21.5625C23.3358 21.5898 22.1483 21.6016 19.9139 21.5938C16.7381 21.582 16.5311 21.5781 16.4334 21.5117C16.2577 21.3945 16.1639 21.2148 16.1834 21.0234C16.203 20.8438 16.2772 20.7344 16.4647 20.6211C16.578 20.5508 16.742 20.5469 19.992 20.5469C23.2694 20.5469 23.4061 20.5508 23.5467 20.6211Z" fill="black"/>
</g>
<defs>
<clipPath id="clip0_350_3114">
<rect width="20" height="20" fill="white" transform="translate(10 10)"/>
</clipPath>
</defs>
</svg>
