<svg width="25" height="24" viewBox="0 0 25 24" fill="none" xmlns="http://www.w3.org/2000/svg">
<g clip-path="url(#clip0_358_8705)">
<path d="M16.8827 0.112431C16.6952 0.201494 15.589 1.28431 11.1124 5.77024C6.56087 10.3312 5.56243 11.3531 5.51087 11.5077C5.40774 11.8077 5.43118 12.314 5.55305 12.5859C5.64212 12.7827 6.5843 13.7437 11.1312 18.2906C17.2062 24.3656 16.7984 23.9999 17.4452 23.9999C17.9374 23.9999 18.1343 23.8827 18.7906 23.2218C19.4281 22.5749 19.5452 22.3687 19.5452 21.8906C19.5452 21.2906 19.8031 21.5765 14.7827 16.5562L10.2265 11.9999L14.8015 7.41556C19.8734 2.33899 19.5593 2.69524 19.5499 2.06243C19.5452 1.59368 19.4281 1.39212 18.8187 0.773369C18.1812 0.131182 17.9515 -6.86646e-05 17.4452 -6.86646e-05C17.1968 -6.86646e-05 17.0609 0.0280571 16.8827 0.112431Z" fill="black"/>
</g>
<defs>
<clipPath id="clip0_358_8705">
<rect width="24" height="24" fill="white" transform="translate(0.5)"/>
</clipPath>
</defs>
</svg>
