<svg width="23" height="22" viewBox="0 0 23 22" fill="none" xmlns="http://www.w3.org/2000/svg">
<path d="M21.2507 1.04772C21.1837 1.09077 18.4333 4.17602 15.1424 7.89745C11.8515 11.6189 9.08671 14.7089 9.00539 14.7567C8.86667 14.8428 8.83797 14.8428 8.67056 14.7807C8.55097 14.7376 7.79999 14.0823 6.39369 12.8051C4.52341 11.0975 4.26511 10.8775 3.93985 10.7244C3.62415 10.5761 3.52848 10.5522 3.1219 10.5378C2.39483 10.5091 1.93085 10.6766 1.44295 11.1405C1.12725 11.4419 0.868951 11.9059 0.778068 12.3316C0.668052 12.8721 0.801985 13.5609 1.10812 14.0105C1.17987 14.1158 2.55747 15.8186 4.17423 17.7989C6.48936 20.6354 7.15903 21.4295 7.35514 21.5586C7.72824 21.8074 8.08221 21.9126 8.53184 21.9126C9.15367 21.9126 9.66071 21.7021 10.0864 21.2621C10.2156 21.1329 12.5594 17.4019 16.166 11.595C19.3948 6.3907 22.0878 2.04744 22.15 1.94221C22.2074 1.83697 22.26 1.68869 22.26 1.61694C22.26 1.41126 22.1213 1.15296 21.9539 1.05251C21.7673 0.937708 21.4181 0.932924 21.2507 1.04772Z" fill="#121416"/>
</svg>
