<svg width="53" height="52" viewBox="0 0 53 52" fill="none" xmlns="http://www.w3.org/2000/svg">
<rect x="0.833496" width="52" height="52" rx="26" fill="#252020"/>
<path d="M26.4684 18.8876C19.7316 22.4056 14.1707 25.3305 14.1099 25.3862C13.9325 25.5434 13.8564 25.7411 13.8564 26.0249C13.8564 26.3392 13.9933 26.5927 14.2265 26.7143C14.3127 26.76 15.9094 27.3176 17.7749 27.9563C20.6136 28.9245 21.1813 29.1019 21.2472 29.0512C21.3131 29.0005 29.0486 22.3904 34.4625 17.7623L35.3242 17.0222L34.939 17.4784C33.2966 19.43 24.3952 30.1918 24.4154 30.207C24.4307 30.2222 33.1597 33.218 35.5777 34.0392C36.1099 34.2167 36.5155 34.1102 36.7385 33.725C36.8145 33.5982 37.1592 31.3678 38.3201 23.5715C39.1413 18.0715 39.8104 13.4484 39.8104 13.2963C39.8104 12.7894 39.5063 12.4853 38.9993 12.4853C38.7307 12.4904 38.3758 12.6678 26.4684 18.8876Z" fill="white"/>
<path d="M23.285 34.0899C23.285 36.6904 23.285 36.6955 23.4016 36.9185C23.5436 37.2024 23.721 37.3291 24.0099 37.3595C24.2938 37.395 24.5472 37.3139 24.7196 37.1314C24.9781 36.8627 27.7459 33.0457 27.7104 33.0153C27.685 32.995 26.7118 32.6554 25.5408 32.2549C24.3698 31.8544 23.3813 31.5199 23.3509 31.5047C23.3002 31.4895 23.285 32.0268 23.285 34.0899Z" fill="white"/>
</svg>
