<svg width="18" height="19" viewBox="0 0 18 19" fill="none" xmlns="http://www.w3.org/2000/svg">
<path d="M9 2.41504C4.8675 2.41504 1.5 5.78254 1.5 9.91504C1.5 14.0475 4.8675 17.415 9 17.415C13.1325 17.415 16.5 14.0475 16.5 9.91504C16.5 5.78254 13.1325 2.41504 9 2.41504ZM12.2625 12.5925C12.1575 12.7725 11.97 12.87 11.775 12.87C11.6775 12.87 11.58 12.8475 11.49 12.7875L9.165 11.4C8.5875 11.055 8.16 10.2975 8.16 9.63004V6.55504C8.16 6.24754 8.415 5.99254 8.7225 5.99254C9.03 5.99254 9.285 6.24754 9.285 6.55504V9.63004C9.285 9.90004 9.51 10.2975 9.7425 10.4325L12.0675 11.82C12.3375 11.9775 12.4275 12.3225 12.2625 12.5925Z" fill="#9E9E9E"/>
</svg>
